<svg width="24" height="24" viewBox="0 0 24 24" fill="none" xmlns="http://www.w3.org/2000/svg">
<path d="M8.52997 10.5303C8.46131 10.604 8.37851 10.6631 8.28651 10.7041C8.19451 10.7451 8.0952 10.7671 7.99449 10.7689C7.89379 10.7707 7.79376 10.7522 7.70037 10.7144C7.60698 10.6767 7.52215 10.6206 7.45093 10.5494C7.37971 10.4781 7.32357 10.3933 7.28585 10.2999C7.24813 10.2065 7.2296 10.1065 7.23138 10.0058C7.23316 9.90509 7.2552 9.80578 7.29619 9.71378C7.33718 9.62178 7.39628 9.53898 7.46997 9.47032L11.47 5.47032C11.6106 5.32987 11.8012 5.25098 12 5.25098C12.1987 5.25098 12.3893 5.32987 12.53 5.47032L16.53 9.47032C16.6037 9.53898 16.6628 9.62178 16.7038 9.71378C16.7447 9.80578 16.7668 9.90509 16.7686 10.0058C16.7703 10.1065 16.7518 10.2065 16.7141 10.2999C16.6764 10.3933 16.6202 10.4781 16.549 10.5494C16.4778 10.6206 16.393 10.6767 16.2996 10.7144C16.2062 10.7522 16.1062 10.7707 16.0054 10.7689C15.9047 10.7671 15.8054 10.7451 15.7134 10.7041C15.6214 10.6631 15.5386 10.604 15.47 10.5303L12.75 7.81032V17.5003C12.75 17.6992 12.671 17.89 12.5303 18.0306C12.3896 18.1713 12.1989 18.2503 12 18.2503C11.8011 18.2503 11.6103 18.1713 11.4696 18.0306C11.329 17.89 11.25 17.6992 11.25 17.5003V7.81032L8.52997 10.5303Z" fill="black"/>
</svg>
