<svg width="24" height="24" viewBox="0 0 24 24" fill="none" xmlns="http://www.w3.org/2000/svg">
<g clip-path="url(#clip0_129_290)">
<path d="M14.297 0.046875L16.7455 0.063C16.7917 0.0988125 16.829 0.12225 16.8685 0.139875C17.3124 0.3405 17.7935 0.484125 18.1934 0.75075C19.3529 1.52138 20.4852 2.33344 21.6168 3.14513C22.1427 3.52144 22.6612 3.91331 23.146 4.3395C23.5064 4.656 23.6682 5.10506 23.6692 5.58394L23.6682 20.6535C23.6677 20.8637 23.6317 21.0799 23.5732 21.282C23.3073 22.2034 22.7176 22.8339 21.7897 23.0801C21.3003 23.2097 20.7834 23.25 20.2758 23.2918C19.484 23.3576 18.6894 23.3899 17.896 23.4375L16.3953 23.5312L13.9923 23.6726L12.515 23.7649L10.0885 23.9055L8.83454 23.9569C8.79423 23.9589 8.75692 24.0154 8.71885 24.0469C7.76448 24.0469 6.81086 24.0469 5.84842 24.0315C5.80229 23.9949 5.76723 23.9655 5.72617 23.9539C5.14454 23.7853 4.65686 23.4639 4.28186 22.9973C3.76248 22.3521 3.26898 21.687 2.76948 21.0264C2.15561 20.2147 1.52579 19.4151 0.945668 18.5801C0.604686 18.0923 0.422051 17.5113 0.422543 16.9161C0.420908 12.4654 0.421471 8.01469 0.424231 3.564C0.424231 3.43575 0.446731 3.30619 0.468856 3.17869C0.701731 1.80844 1.71611 1.07737 2.92248 0.941812C3.54873 0.8715 4.17929 0.84 4.80854 0.798375L6.47167 0.702375L7.1866 0.6555L9.34285 0.4695L10.5382 0.37575L12.518 0.235125L14.1811 0.136875C14.2216 0.134063 14.2589 0.078375 14.297 0.046875ZM4.86479 21.4095C4.96454 21.5391 5.07573 21.6621 5.16292 21.7999C5.58554 22.4612 6.19136 22.7014 6.96104 22.6502L12.1752 22.3397L18.0432 21.9851L20.9649 21.7969C21.8307 21.7273 22.2489 21.2593 22.2657 20.3906V20.2031L22.2723 5.97881C22.273 5.55037 22.1251 5.25075 21.7824 5.01131L17.6529 2.10131C16.9885 1.61794 16.2834 1.39237 15.4666 1.45687L10.8421 1.79887L6.00667 2.1555L2.97161 2.39213C2.35848 2.44838 1.97842 2.82338 1.86854 3.42488C1.84183 3.57842 1.82884 3.73403 1.82973 3.88988L1.81717 16.3102C1.81286 17.124 2.06186 17.8009 2.54898 18.4234L4.86479 21.4095Z" fill="white"/>
<path d="M4.8537 21.3969L2.54876 18.4232C2.06164 17.8007 1.81264 17.124 1.81695 16.3102L1.82951 3.88985C1.82951 3.7346 1.84114 3.5771 1.86832 3.42485C1.9782 2.82353 2.35826 2.44853 2.97139 2.3921L6.00645 2.15547L10.8421 1.79885L15.4664 1.45685C16.2831 1.39235 16.9883 1.61791 17.6526 2.10128C19.0143 3.09222 20.4014 4.0481 21.7821 5.01128C22.1249 5.25072 22.2728 5.55035 22.2721 5.97878L22.2655 20.2038V20.3913C22.2486 21.2593 21.8305 21.7273 20.9646 21.7968C19.9921 21.8752 19.0173 21.9258 18.043 21.9851L12.175 22.3395L6.96083 22.6502C6.19114 22.7013 5.58532 22.4612 5.1627 21.7998C5.07551 21.662 4.96432 21.539 4.8537 21.3969ZM6.05482 12.7734V19.0524L6.05632 20.2235C6.06645 20.7487 6.3237 21.0103 6.8487 21.0403C6.98051 21.0476 7.11382 21.0431 7.24639 21.035L11.6418 20.7759L20.0352 20.2961C20.5583 20.2668 20.8 20.0375 20.849 19.5191C20.8585 19.4259 20.8555 19.3316 20.8555 19.2378L20.8563 7.14841C20.8563 7.0781 20.8585 7.00778 20.8542 6.93747C20.8227 6.45635 20.6161 6.26003 20.138 6.28553L15.8121 6.53472C13.786 6.6526 11.7598 6.77122 9.73376 6.8906L6.69495 7.07303C6.30758 7.09778 6.13245 7.26485 6.07395 7.6436C6.0601 7.74404 6.05396 7.8454 6.05558 7.94678L6.05482 12.7734ZM16.7746 2.8871C16.4076 2.68797 16.0092 2.62197 15.599 2.64466C14.9684 2.67916 14.3378 2.7311 13.7071 2.77666L4.71664 3.42991C4.44495 3.4496 4.17176 3.46928 3.90364 3.51785C3.81364 3.53397 3.70001 3.62472 3.67226 3.70685C3.65164 3.7646 3.74257 3.88122 3.80914 3.94497C3.93232 4.06272 4.07426 4.16153 4.20851 4.26785C4.52707 4.5191 4.86607 4.74822 5.15839 5.02591C5.71282 5.55241 6.35801 5.6741 7.09714 5.62066L12.9162 5.25578L19.1806 4.88003C19.2378 4.87722 19.295 4.8596 19.4208 4.83616C19.3058 4.71672 19.2391 4.62522 19.1521 4.56072C18.8452 4.33406 18.5353 4.11142 18.2226 3.89285C17.7422 3.55435 17.2595 3.21909 16.7746 2.8871Z" fill="black"/>
<path d="M6.05492 12.7499L6.05567 7.94671C6.05567 7.84546 6.05867 7.74308 6.07404 7.64352C6.13254 7.26477 6.30767 7.0979 6.69504 7.07296L9.73386 6.89052L15.8122 6.53465L20.1379 6.28546C20.6162 6.25996 20.8228 6.45683 20.8541 6.9374C20.8586 7.00771 20.8564 7.07802 20.8564 7.14833L20.8556 19.2378L20.849 19.519C20.8001 20.0375 20.5584 20.2668 20.0353 20.296L11.6419 20.7758L7.24648 21.035L6.84898 21.0402C6.32379 21.0102 6.06654 20.7486 6.05642 20.2242L6.05492 19.0523V12.7499ZM14.636 12.7623L12.2233 9.08633C12.1391 8.95808 12.0564 8.91571 11.9012 8.93258L10.8727 9.00196L8.98085 9.14052C8.51585 9.18308 8.2346 9.62033 8.36342 10.0737L9.36542 10.1594V18.2768L8.68292 18.4694C8.38029 18.5586 8.25073 18.8136 8.35254 19.1395L10.6603 19.007L11.5693 18.9323C11.9612 18.8678 12.1721 18.6276 12.2248 18.2358L10.9629 17.948V11.8424L11.0567 11.9736L13.9569 16.5021C14.3832 17.1635 14.8211 17.8173 15.2702 18.4634C15.5902 18.9228 16.062 19.0634 16.5922 18.949C16.9241 18.8781 17.2427 18.7433 17.5678 18.6385C17.7371 18.5836 17.7949 18.4825 17.7941 18.2928L17.7885 9.94902C17.7885 9.46133 17.7885 9.46133 18.2709 9.36402C18.7588 9.26577 18.881 9.07096 18.7697 8.54952L15.854 8.72671C15.5368 8.7494 15.2966 9.01452 15.2484 9.32296C15.2248 9.47165 15.2555 9.55358 15.4335 9.5639L16.3162 9.6614V15.32C15.7571 14.467 15.197 13.6147 14.636 12.763V12.7623ZM16.7906 2.89508C17.2692 3.2256 17.7465 3.55811 18.2224 3.89258C18.5351 4.11122 18.845 4.33393 19.152 4.56065C19.239 4.62515 19.3057 4.71665 19.4207 4.83608L19.1805 4.87996L12.9161 5.25571L7.09704 5.62058C6.35792 5.67402 5.71273 5.55233 5.15829 5.02583C4.86598 4.74833 4.52698 4.51902 4.20823 4.26777C4.07417 4.16146 3.93223 4.06265 3.80904 3.94471C3.74248 3.88096 3.65154 3.76471 3.67217 3.70658C3.69992 3.62465 3.81429 3.5339 3.90354 3.51777C4.17167 3.4694 4.44485 3.44952 4.71654 3.42983L13.7072 2.77658L15.599 2.64458C16.0091 2.62208 16.4075 2.68771 16.7906 2.89508Z" fill="white"/>
<path d="M14.6462 12.7762L16.3163 15.32V9.66125L15.4337 9.56375C15.2556 9.55362 15.2249 9.47169 15.2483 9.323C15.2967 9.01456 15.537 8.74944 15.8539 8.72675L18.7697 8.54956C18.8811 9.07081 18.7589 9.26581 18.271 9.36387C17.7884 9.46062 17.7884 9.46062 17.7884 9.94906L17.7942 18.2928C17.7949 18.4826 17.7372 18.5836 17.5679 18.6386L16.5923 18.9491C16.062 19.0627 15.5903 18.9228 15.2704 18.4634C14.8215 17.8172 14.3837 17.1634 13.9572 16.5022L11.0565 11.9735C11.0361 11.9412 11.0127 11.9112 10.9628 11.8424V17.948L12.2249 18.2358C12.1722 18.6277 11.9612 18.8677 11.5694 18.9324C11.2705 18.9813 10.9637 18.9886 10.6604 19.007L8.35261 19.1396C8.2508 18.8137 8.38036 18.5587 8.68298 18.4694L9.36548 18.2769V10.1594L8.36348 10.0737C8.23467 9.62037 8.51592 9.18312 8.98092 9.14056C9.61017 9.08187 10.2422 9.04606 10.8728 9.00219C11.2155 8.97875 11.5598 8.96994 11.9012 8.93262C12.0565 8.91575 12.1394 8.95812 12.2234 9.08637L14.6462 12.7762Z" fill="black"/>
</g>
<defs>
<clipPath id="clip0_129_290">
<rect width="24" height="24" fill="white"/>
</clipPath>
</defs>
</svg>
