<svg width="24" height="24" viewBox="0 0 24 24" fill="none" xmlns="http://www.w3.org/2000/svg">
<g clip-path="url(#clip0_129_191)">
<path d="M4.25006 0.300049H19.7499C22.1001 0.300049 24 2.19999 24 4.55011V19.45C24 21.8001 22.1001 23.7001 19.7499 23.7001H4.25006C1.89994 23.7001 0 21.8001 0 19.45V4.55011C0 2.19999 1.89994 0.300049 4.25006 0.300049Z" fill="#001E36"/>
<path d="M8.60009 6.24988C8.30009 6.24988 8.00009 6.24988 7.69015 6.26C7.38002 6.26994 7.08996 6.26994 6.81996 6.28007C6.54996 6.29 6.30002 6.29 6.06002 6.29994C5.82996 6.30988 5.67002 6.30988 5.49996 6.30988C5.43002 6.30988 5.40002 6.34982 5.40002 6.41994V16.7099C5.40002 16.7999 5.43996 16.8401 5.52002 16.8401H7.46009C7.53002 16.8299 7.58009 16.7699 7.56996 16.7V13.49C7.7599 13.49 7.89996 13.49 8.00009 13.4999C8.10002 13.5099 8.25996 13.5099 8.49996 13.5099C9.32009 13.5099 10.0701 13.4199 10.75 13.1699C11.4 12.9299 11.9601 12.5099 12.36 11.9499C12.76 11.3899 12.96 10.6799 12.96 9.81988C12.96 9.36988 12.8801 8.93994 12.7301 8.51994C12.5712 8.09204 12.3222 7.70328 12 7.37994C11.6197 7.0105 11.162 6.73035 10.66 6.55982C10.0999 6.34982 9.42003 6.24988 8.60009 6.24988ZM8.82321 8.21957C9.17946 8.22632 9.52634 8.28856 9.84996 8.41981C10.14 8.52988 10.38 8.72994 10.5501 8.98981C10.7096 9.25877 10.7894 9.56751 10.7801 9.88006C10.7801 10.3199 10.68 10.6601 10.47 10.91C10.2499 11.1599 9.96996 11.3501 9.65009 11.4401C9.27996 11.5601 8.88996 11.6199 8.49996 11.6199H7.9699C7.8499 11.6199 7.72015 11.6099 7.58009 11.6V8.24C7.65002 8.22988 7.79009 8.21994 7.99015 8.23007C8.18009 8.21994 8.40996 8.21994 8.67003 8.21994C8.72128 8.21869 8.77234 8.21857 8.82321 8.21957ZM17.2101 8.73013C16.5 8.73013 15.91 8.84 15.4401 9.08C15.0102 9.28006 14.64 9.59994 14.3901 9.99988C14.1702 10.37 14.05 10.7799 14.05 11.21C14.0414 11.5638 14.1204 11.9142 14.28 12.23C14.467 12.5663 14.7267 12.8567 15.0401 13.0799C15.48 13.3808 15.9574 13.6229 16.4601 13.7999C16.95 13.9899 17.28 14.1399 17.4402 14.2698C17.6001 14.3999 17.6802 14.5299 17.6802 14.6699C17.6802 14.8499 17.5701 15.02 17.4102 15.0899C17.2302 15.1799 16.9602 15.23 16.5801 15.23C16.1802 15.23 15.78 15.1799 15.4 15.08C14.9636 14.9825 14.5452 14.8172 14.16 14.5901C14.13 14.57 14.1 14.5601 14.07 14.5801C14.04 14.6 14.0301 14.6399 14.0301 14.6699V16.4099C14.0202 16.49 14.07 16.5599 14.1402 16.5999C14.4644 16.7514 14.8074 16.859 15.1601 16.9199C15.6101 17.0099 16.06 17.0499 16.5199 17.0499C17.2399 17.0499 17.8401 16.94 18.33 16.73C18.78 16.55 19.17 16.2401 19.45 15.8399C19.7121 15.4466 19.8482 14.9827 19.84 14.51C19.8498 14.1529 19.7708 13.799 19.6101 13.4801C19.42 13.1399 19.15 12.86 18.82 12.65C18.3372 12.3468 17.8203 12.1018 17.28 11.9199C17.0388 11.82 16.8019 11.7099 16.57 11.5899C16.44 11.5199 16.32 11.4299 16.23 11.3199C16.17 11.2398 16.1301 11.15 16.1301 11.06C16.1301 10.97 16.1601 10.8701 16.21 10.79C16.2801 10.6901 16.39 10.6199 16.5199 10.5899C16.71 10.5401 16.92 10.5099 17.1199 10.5198C17.5 10.5198 17.8699 10.5699 18.24 10.6499C18.5801 10.7199 18.9 10.8299 19.2 10.9901C19.24 11.0099 19.29 11.0099 19.38 10.9901C19.3957 10.9785 19.4083 10.9634 19.417 10.946C19.4257 10.9286 19.4302 10.9094 19.4301 10.8899V9.26C19.4301 9.21988 19.42 9.17994 19.41 9.14C19.39 9.10007 19.35 9.05994 19.3101 9.05C19.0343 8.93727 18.7453 8.85997 18.45 8.81994C18.0394 8.76015 17.625 8.73026 17.2101 8.73013Z" fill="#31A8FF"/>
</g>
<defs>
<clipPath id="clip0_129_191">
<rect width="24" height="24" fill="white"/>
</clipPath>
</defs>
</svg>
