<svg width="24" height="24" viewBox="0 0 24 24" fill="none" xmlns="http://www.w3.org/2000/svg">
<g clip-path="url(#clip0_129_246)">
<path d="M4.25625 0.300049H19.7625C22.1063 0.300049 24.0188 2.1938 24.0188 4.5563V19.4625C24.0188 21.8063 22.125 23.7188 19.7625 23.7188H4.25625C1.89375 23.7 0 21.8063 0 19.4438V4.5563C0 2.1938 1.89375 0.300049 4.25625 0.300049Z" fill="#330000"/>
<path d="M11.6063 14.3063H7.87506L7.12506 16.65C7.10631 16.7438 7.03131 16.8 6.93756 16.7813H5.06256C4.95006 16.7813 4.93131 16.725 4.95006 16.5938L8.17506 7.33127C8.21256 7.23752 8.23131 7.12502 8.26881 6.99377C8.30631 6.78752 8.32506 6.56252 8.32506 6.33752C8.30631 6.28127 8.36256 6.24377 8.40006 6.22502H10.9876C11.0626 6.22502 11.1001 6.26252 11.1188 6.30002L14.7751 16.5938C14.8126 16.7063 14.7751 16.7625 14.6813 16.7625H12.5813C12.5063 16.7813 12.4501 16.725 12.4126 16.65L11.6063 14.3063ZM8.45631 12.2625H10.9876C10.9313 12.0563 10.8563 11.7938 10.7626 11.55C10.6688 11.2875 10.5751 10.9875 10.5001 10.6875C10.4063 10.3688 10.3126 10.0688 10.2188 9.76877C10.1251 9.45002 10.0313 9.16877 9.95631 8.88752C9.88131 8.60627 9.80631 8.34377 9.73131 8.10002H9.71256C9.61881 8.53127 9.50631 8.96252 9.37506 9.39377C9.22506 9.88127 9.07506 10.3688 8.90631 10.875C8.75631 11.3813 8.60631 11.85 8.45631 12.2625ZM17.0063 8.00627C16.6688 8.02502 16.3501 7.89377 16.1251 7.65002C15.9001 7.40627 15.7688 7.06877 15.7876 6.73127C15.7688 6.39377 15.9001 6.07502 16.1438 5.85002C16.3876 5.62502 16.7063 5.49377 17.0251 5.49377C17.4188 5.49377 17.7188 5.60627 17.9438 5.85002C18.1688 6.09377 18.2813 6.41252 18.2813 6.73127C18.3001 7.06877 18.1688 7.40627 17.9251 7.65002C17.6813 7.89377 17.3438 8.02502 17.0063 8.00627ZM15.8813 16.6875V8.98127C15.8813 8.88752 15.9188 8.85002 16.0126 8.85002H18.0001C18.0938 8.85002 18.1313 8.90627 18.1313 8.98127V16.6875C18.1313 16.8 18.0938 16.8563 18.0001 16.8563H16.0313C15.9376 16.8375 15.8813 16.7813 15.8813 16.6875Z" fill="#FF9A00"/>
</g>
<defs>
<clipPath id="clip0_129_246">
<rect width="24" height="24" fill="white"/>
</clipPath>
</defs>
</svg>
